<?xml version="1.0" encoding="UTF-8"?>
<svg xmlns="http://www.w3.org/2000/svg" xmlns:xlink="http://www.w3.org/1999/xlink" width="56" height="56" viewBox="0 0 56 56">
  <defs>
    <clipPath id="clip-path">
      <rect id="Rectangle_9" data-name="Rectangle 9" width="33.281" height="34.076" transform="translate(0 0)" fill="#0a4647"></rect>
    </clipPath>
    <clipPath id="clip-bbq">
      <rect width="56" height="56"></rect>
    </clipPath>
  </defs>
  <g id="bbq" clip-path="url(#clip-bbq)">
    <g id="Group_8" data-name="Group 8" transform="translate(11 11)">
      <g id="Group_7" data-name="Group 7" clip-path="url(#clip-path)">
        <path id="Path_4" data-name="Path 4" d="M15.73,33.165V10.392H3.639a.68.68,0,0,1-.708-.515.649.649,0,0,1,.277-.81L15.8.26A1.528,1.528,0,0,1,16.644,0a1.5,1.5,0,0,1,.834.26L30.073,9.067a.648.648,0,0,1,.277.81.68.68,0,0,1-.708.515H17.552V33.165a.911.911,0,1,1-1.822,0m.911-24.6h0ZM1.155,33.165V24.651L.016,18.306A.87.87,0,0,1,.75,17.263a.839.839,0,0,1,.666.147.873.873,0,0,1,.366.574l1.153,6.282H8.793a1.445,1.445,0,0,1,1.471,1.471v7.428a.911.911,0,1,1-1.822,0V26.088H2.977v7.077a.9.9,0,0,1-.912.911.893.893,0,0,1-.91-.911m21.862,0V25.737a1.445,1.445,0,0,1,1.472-1.471h5.858L31.5,17.984a.894.894,0,0,1,.343-.574.828.828,0,0,1,.674-.147.9.9,0,0,1,.606.361.87.87,0,0,1,.143.682l-1.139,6.345v8.514a.911.911,0,1,1-1.821,0V26.088H24.839v7.077a.911.911,0,1,1-1.822,0M7.118,8.57H26.163L16.641,1.892Z" fill="#0a4647"></path>
      </g>
    </g>
  </g>
</svg>
