<svg width="24" height="24" viewBox="0 0 24 24" fill="none" xmlns="http://www.w3.org/2000/svg">
<g id="bed">
<mask id="mask0_793_16332" style="mask-type:alpha" maskUnits="userSpaceOnUse" x="0" y="0" width="24" height="24">
<rect id="Bounding box" width="24" height="24" fill="#D9D9D9"/>
</mask>
<g mask="url(#mask0_793_16332)">
<path id="bed_2" d="M3.49933 18C3.35746 18 3.23878 17.9521 3.14328 17.8562C3.04776 17.7604 3 17.6417 3 17.5V13C3 12.7038 3.08526 12.3885 3.25578 12.0538C3.42628 11.7192 3.67435 11.468 4 11.3V9C4 8.4359 4.19231 7.96154 4.57692 7.57693C4.96154 7.19231 5.4359 7 6 7H10.5C10.8449 7 11.1391 7.07083 11.3827 7.2125C11.6263 7.35417 11.8321 7.55 12 7.8C12.1679 7.55 12.3737 7.35417 12.6173 7.2125C12.8609 7.07083 13.1551 7 13.5 7H18C18.5641 7 19.0385 7.19231 19.4231 7.57693C19.8077 7.96154 20 8.4359 20 9V11.3C20.3256 11.468 20.5737 11.7192 20.7442 12.0538C20.9147 12.3885 21 12.7038 21 13V17.5C21 17.6417 20.952 17.7604 20.8561 17.8562C20.7601 17.9521 20.6412 18 20.4993 18C20.3575 18 20.2388 17.9521 20.1433 17.8562C20.0478 17.7604 20 17.6417 20 17.5V16H4V17.5C4 17.6417 3.95202 17.7604 3.85605 17.8562C3.76008 17.9521 3.64118 18 3.49933 18ZM12.5 11H19V9C19 8.71667 18.9042 8.47917 18.7125 8.2875C18.5208 8.09583 18.2833 8 18 8H13.5C13.2167 8 12.9792 8.09583 12.7875 8.2875C12.5958 8.47917 12.5 8.71667 12.5 9V11ZM5 11H11.5V9C11.5 8.71667 11.4042 8.47917 11.2125 8.2875C11.0208 8.09583 10.7833 8 10.5 8H6C5.71667 8 5.47917 8.09583 5.2875 8.2875C5.09583 8.47917 5 8.71667 5 9V11ZM4 15H20V13C20 12.7167 19.9042 12.4792 19.7125 12.2875C19.5208 12.0958 19.2833 12 19 12H5C4.71667 12 4.47917 12.0958 4.2875 12.2875C4.09583 12.4792 4 12.7167 4 13V15Z" fill="#0A4647"/>
</g>
</g>
</svg>
