<svg width="49" height="64" viewBox="0 0 49 64" fill="none" xmlns="http://www.w3.org/2000/svg">
<path d="M47.65 17.25C47.35 14.05 44.65 11.55 41.4 11.5C41.1 11.5 40.85 11.5 40.55 11.55C40.55 11.45 40.55 11.35 40.55 11.25C40.55 7.3 37.3 4 33.25 4C33.1 4 32.9 4 32.75 4C31.1 1.5 28.25 0 25.2 0C21.95 0 19 1.7 17.35 4.45C16.55 4.15 15.7 4 14.85 4C10.8 4 7.55 7.3 7.55 11.3C7.55 11.4 7.55 11.5 7.55 11.6C7.3 11.55 7 11.55 6.7 11.55C3.45 11.55 0.75 14.05 0.45 17.3H0L7.45 64H40.65L48.1 17.25H47.65ZM6.75 13.55C7.35 13.55 7.9 13.65 8.45 13.9L10.4 14.75L9.8 12.7C9.65 12.25 9.6 11.8 9.6 11.3C9.6 8.4 11.95 6.05 14.85 6.05C15.7 6.05 16.55 6.25 17.3 6.65L18.25 7.15L18.7 6.15C19.85 3.65 22.4 2 25.2 2C27.75 2 30.15 3.4 31.4 5.6L31.75 6.25L32.45 6.1C32.7 6.05 33 6.05 33.25 6.05C36.15 6.05 38.5 8.4 38.5 11.3C38.5 11.8 38.45 12.25 38.3 12.7L37.7 14.75L39.65 13.9C40.2 13.7 40.75 13.55 41.3 13.55C43.45 13.55 45.25 15.2 45.55 17.25H2.5C2.8 15.2 4.6 13.55 6.75 13.55ZM22.25 29.7C18.75 29.85 15.6 30.55 13 31.65L11.75 19.35H22.25V29.7ZM34.65 19.3L33.8 31.1C31.1 30.2 27.85 29.65 24.3 29.65V19.3H34.65ZM9.15 61.95L2.4 19.3H9.75L11.05 32.55C8.1 34.2 6.35 36.4 6.35 38.85C6.35 41.65 8.65 44.15 12.35 45.85L13.95 62H9.15V61.95ZM22.25 61.95H16.05L14.5 46.65C16.75 47.4 19.4 47.9 22.25 48V61.95ZM8.4 38.85C8.4 34.95 15.55 31.65 24.05 31.65C32.55 31.65 39.7 34.95 39.7 38.85C39.7 42.75 32.55 46.05 24.05 46.05C15.55 46.05 8.4 42.75 8.4 38.85ZM31.45 61.95H24.3V48.05C27.35 48.05 30.15 47.65 32.6 46.95L31.45 61.95ZM38.95 61.95H33.5L34.65 46.25C38.95 44.6 41.7 41.9 41.7 38.85C41.7 36.05 39.4 33.55 35.7 31.9L36.65 19.3H45.7L38.95 61.95Z" fill="#0A4647"/>
</svg>
