<svg width="889" height="889" viewBox="0 0 889 889" fill="none" xmlns="http://www.w3.org/2000/svg">
<g opacity="0.8">
<mask id="mask0_1774_22791" style="mask-type:luminance" maskUnits="userSpaceOnUse" x="0" y="0" width="889" height="889">
<path d="M99.0767 444.508C99.0767 253.727 253.727 99.0767 444.492 99.0767C635.256 99.0767 789.923 253.727 789.923 444.508C789.923 635.289 635.273 789.94 444.492 789.94C253.711 789.94 99.0767 635.273 99.0767 444.508ZM0 444.508C0 690 199 889 444.508 889C690.016 889 889 689.983 889 444.492C889 199 690 0 444.508 0C199.017 0 0 199.017 0 444.508Z" fill="white"/>
</mask>
<g mask="url(#mask0_1774_22791)">
<path d="M0 444.508H889" stroke="#D1EEEA" stroke-width="4.50713" stroke-miterlimit="10"/>
<path d="M3.80078 502.523L885.196 386.477" stroke="#D1EEEA" stroke-width="4.50713" stroke-miterlimit="10"/>
<path d="M15.1445 559.541L873.859 329.458" stroke="#D1EEEA" stroke-width="4.50713" stroke-miterlimit="10"/>
<path d="M33.8398 614.601L855.162 274.399" stroke="#D1EEEA" stroke-width="4.50713" stroke-miterlimit="10"/>
<path d="M59.5586 666.754L829.457 222.246" stroke="#D1EEEA" stroke-width="4.50713" stroke-miterlimit="10"/>
<path d="M91.8555 715.105L797.148 173.911" stroke="#D1EEEA" stroke-width="4.50713" stroke-miterlimit="10"/>
<path d="M130.191 758.807L758.806 130.192" stroke="#D1EEEA" stroke-width="4.50713" stroke-miterlimit="10"/>
<path d="M173.91 797.146L715.104 91.8535" stroke="#D1EEEA" stroke-width="4.50713" stroke-miterlimit="10"/>
<path d="M222.246 829.458L666.754 59.5591" stroke="#D1EEEA" stroke-width="4.50713" stroke-miterlimit="10"/>
<path d="M274.398 855.177L614.6 33.8389" stroke="#D1EEEA" stroke-width="4.50713" stroke-miterlimit="10"/>
<path d="M329.457 873.857L559.54 15.1426" stroke="#D1EEEA" stroke-width="4.50713" stroke-miterlimit="10"/>
<path d="M386.477 885.198L502.523 3.80225" stroke="#D1EEEA" stroke-width="4.50713" stroke-miterlimit="10"/>
<path d="M444.508 889V0" stroke="#D1EEEA" stroke-width="4.50713" stroke-miterlimit="10"/>
<path d="M502.523 885.198L386.477 3.80225" stroke="#D1EEEA" stroke-width="4.50713" stroke-miterlimit="10"/>
<path d="M559.54 873.857L329.457 15.1426" stroke="#D1EEEA" stroke-width="4.50713" stroke-miterlimit="10"/>
<path d="M614.6 855.177L274.398 33.8389" stroke="#D1EEEA" stroke-width="4.50713" stroke-miterlimit="10"/>
<path d="M666.754 829.458L222.246 59.5591" stroke="#D1EEEA" stroke-width="4.50713" stroke-miterlimit="10"/>
<path d="M715.104 797.146L173.91 91.8535" stroke="#D1EEEA" stroke-width="4.50713" stroke-miterlimit="10"/>
<path d="M758.806 758.807L130.191 130.192" stroke="#D1EEEA" stroke-width="4.50713" stroke-miterlimit="10"/>
<path d="M797.148 715.105L91.8555 173.911" stroke="#D1EEEA" stroke-width="4.50713" stroke-miterlimit="10"/>
<path d="M829.457 666.754L59.5586 222.246" stroke="#D1EEEA" stroke-width="4.50713" stroke-miterlimit="10"/>
<path d="M855.178 614.601L33.8398 274.399" stroke="#D1EEEA" stroke-width="4.50713" stroke-miterlimit="10"/>
<path d="M873.859 559.541L15.1445 329.458" stroke="#D1EEEA" stroke-width="4.50713" stroke-miterlimit="10"/>
<path d="M885.196 502.523L3.80078 386.477" stroke="#D1EEEA" stroke-width="4.50713" stroke-miterlimit="10"/>
</g>
<mask id="mask1_1774_22791" style="mask-type:luminance" maskUnits="userSpaceOnUse" x="99" y="99" width="691" height="691">
<path d="M224.821 444.508C224.821 323.166 323.184 224.82 444.51 224.82C565.836 224.82 664.199 323.182 664.199 444.508C664.199 565.835 565.836 664.197 444.51 664.197C323.184 664.197 224.821 565.835 224.821 444.508ZM99.0947 444.508C99.0947 635.273 253.745 789.94 444.51 789.94C635.274 789.94 789.942 635.289 789.942 444.508C789.942 253.727 635.274 99.0767 444.51 99.0767C253.745 99.0767 99.0781 253.727 99.0781 444.508" fill="white"/>
</mask>
<g mask="url(#mask1_1774_22791)">
<path d="M0.996094 474.18L888.02 414.82" stroke="#D1EEEA" stroke-width="4.50713" stroke-miterlimit="10"/>
<path d="M8.66821 531.813L880.35 357.188" stroke="#D1EEEA" stroke-width="4.50713" stroke-miterlimit="10"/>
<path d="M23.7773 587.951L865.223 301.049" stroke="#D1EEEA" stroke-width="4.50713" stroke-miterlimit="10"/>
<path d="M46.1094 641.649L842.89 247.368" stroke="#D1EEEA" stroke-width="4.50713" stroke-miterlimit="10"/>
<path d="M75.25 691.959L813.751 197.058" stroke="#D1EEEA" stroke-width="4.50713" stroke-miterlimit="10"/>
<path d="M110.699 738.036L778.3 150.964" stroke="#D1EEEA" stroke-width="4.50713" stroke-miterlimit="10"/>
<path d="M151.879 779.097L737.124 109.902" stroke="#D1EEEA" stroke-width="4.50713" stroke-miterlimit="10"/>
<path d="M198.055 814.431L690.947 74.5688" stroke="#D1EEEA" stroke-width="4.50713" stroke-miterlimit="10"/>
<path d="M248.449 843.438L640.555 45.5781" stroke="#D1EEEA" stroke-width="4.50713" stroke-miterlimit="10"/>
<path d="M302.195 865.605L586.806 23.395" stroke="#D1EEEA" stroke-width="4.50713" stroke-miterlimit="10"/>
<path d="M358.383 880.581L530.634 8.41797" stroke="#D1EEEA" stroke-width="4.50713" stroke-miterlimit="10"/>
<path d="M416.031 888.087L472.967 0.913086" stroke="#D1EEEA" stroke-width="4.50713" stroke-miterlimit="10"/>
<path d="M474.18 888.02L414.82 0.996094" stroke="#D1EEEA" stroke-width="4.50713" stroke-miterlimit="10"/>
<path d="M531.813 880.349L357.188 8.66699" stroke="#D1EEEA" stroke-width="4.50713" stroke-miterlimit="10"/>
<path d="M587.953 865.223L301.051 23.7769" stroke="#D1EEEA" stroke-width="4.50713" stroke-miterlimit="10"/>
<path d="M641.648 842.89L247.367 46.1094" stroke="#D1EEEA" stroke-width="4.50713" stroke-miterlimit="10"/>
<path d="M691.961 813.751L197.043 75.25" stroke="#D1EEEA" stroke-width="4.50713" stroke-miterlimit="10"/>
<path d="M738.036 778.3L150.965 110.699" stroke="#D1EEEA" stroke-width="4.50713" stroke-miterlimit="10"/>
<path d="M779.097 737.122L109.902 151.877" stroke="#D1EEEA" stroke-width="4.50713" stroke-miterlimit="10"/>
<path d="M814.432 690.946L74.5703 198.054" stroke="#D1EEEA" stroke-width="4.50713" stroke-miterlimit="10"/>
<path d="M843.438 640.553L45.5781 248.447" stroke="#D1EEEA" stroke-width="4.50713" stroke-miterlimit="10"/>
<path d="M865.604 586.805L23.3945 302.194" stroke="#D1EEEA" stroke-width="4.50713" stroke-miterlimit="10"/>
<path d="M880.581 530.634L8.41797 358.383" stroke="#D1EEEA" stroke-width="4.50713" stroke-miterlimit="10"/>
<path d="M888.088 472.968L0.914062 416.032" stroke="#D1EEEA" stroke-width="4.50713" stroke-miterlimit="10"/>
</g>
<mask id="mask2_1774_22791" style="mask-type:luminance" maskUnits="userSpaceOnUse" x="224" y="224" width="441" height="441">
<path d="M301.167 444.508C301.167 365.34 365.342 301.165 444.51 301.165C523.678 301.165 587.853 365.34 587.853 444.508C587.853 523.676 523.678 587.851 444.51 587.851C365.342 587.851 301.167 523.676 301.167 444.508ZM224.805 444.508C224.805 565.834 323.167 664.197 444.494 664.197C565.82 664.197 664.182 565.834 664.182 444.508C664.182 323.182 565.82 224.819 444.494 224.819C323.167 224.819 224.805 323.182 224.805 444.508Z" fill="white"/>
</mask>
<g mask="url(#mask2_1774_22791)">
<path d="M0 444.508H889" stroke="#D1EEEA" stroke-width="4.50713" stroke-miterlimit="10"/>
<path d="M3.80078 502.523L885.196 386.477" stroke="#D1EEEA" stroke-width="4.50713" stroke-miterlimit="10"/>
<path d="M15.1445 559.541L873.859 329.458" stroke="#D1EEEA" stroke-width="4.50713" stroke-miterlimit="10"/>
<path d="M33.8398 614.601L855.162 274.399" stroke="#D1EEEA" stroke-width="4.50713" stroke-miterlimit="10"/>
<path d="M59.5586 666.754L829.457 222.246" stroke="#D1EEEA" stroke-width="4.50713" stroke-miterlimit="10"/>
<path d="M91.8555 715.105L797.148 173.911" stroke="#D1EEEA" stroke-width="4.50713" stroke-miterlimit="10"/>
<path d="M130.191 758.807L758.806 130.192" stroke="#D1EEEA" stroke-width="4.50713" stroke-miterlimit="10"/>
<path d="M173.91 797.146L715.104 91.8535" stroke="#D1EEEA" stroke-width="4.50713" stroke-miterlimit="10"/>
<path d="M222.246 829.458L666.754 59.5591" stroke="#D1EEEA" stroke-width="4.50713" stroke-miterlimit="10"/>
<path d="M274.398 855.177L614.6 33.8389" stroke="#D1EEEA" stroke-width="4.50713" stroke-miterlimit="10"/>
<path d="M329.457 873.857L559.54 15.1426" stroke="#D1EEEA" stroke-width="4.50713" stroke-miterlimit="10"/>
<path d="M386.477 885.198L502.523 3.80225" stroke="#D1EEEA" stroke-width="4.50713" stroke-miterlimit="10"/>
<path d="M444.508 889V0" stroke="#D1EEEA" stroke-width="4.50713" stroke-miterlimit="10"/>
<path d="M502.523 885.198L386.477 3.80225" stroke="#D1EEEA" stroke-width="4.50713" stroke-miterlimit="10"/>
<path d="M559.54 873.857L329.457 15.1426" stroke="#D1EEEA" stroke-width="4.50713" stroke-miterlimit="10"/>
<path d="M614.6 855.177L274.398 33.8389" stroke="#D1EEEA" stroke-width="4.50713" stroke-miterlimit="10"/>
<path d="M666.754 829.458L222.246 59.5591" stroke="#D1EEEA" stroke-width="4.50713" stroke-miterlimit="10"/>
<path d="M715.104 797.146L173.91 91.8535" stroke="#D1EEEA" stroke-width="4.50713" stroke-miterlimit="10"/>
<path d="M758.806 758.807L130.191 130.192" stroke="#D1EEEA" stroke-width="4.50713" stroke-miterlimit="10"/>
<path d="M797.148 715.105L91.8555 173.911" stroke="#D1EEEA" stroke-width="4.50713" stroke-miterlimit="10"/>
<path d="M829.457 666.754L59.5586 222.246" stroke="#D1EEEA" stroke-width="4.50713" stroke-miterlimit="10"/>
<path d="M855.178 614.601L33.8398 274.399" stroke="#D1EEEA" stroke-width="4.50713" stroke-miterlimit="10"/>
<path d="M873.859 559.541L15.1445 329.458" stroke="#D1EEEA" stroke-width="4.50713" stroke-miterlimit="10"/>
<path d="M885.196 502.523L3.80078 386.477" stroke="#D1EEEA" stroke-width="4.50713" stroke-miterlimit="10"/>
</g>
<g clip-path="url(#clip0_1774_22791)">
<path d="M385.403 410L377.846 382.364H381.246L387.022 404.872H387.292L393.175 382.364H396.954L402.837 404.872H403.107L408.883 382.364H412.283L404.727 410H401.272L395.173 387.977H394.957L388.857 410H385.403ZM416.453 410V382.364H419.8V394.671H434.535V382.364H437.882V410H434.535V397.639H419.8V410H416.453ZM444.582 410V382.364H461.261V385.333H447.929V394.671H460.397V397.639H447.929V407.031H461.477V410H444.582ZM467.293 410V382.364H476.631C478.79 382.364 480.562 382.733 481.948 383.47C483.333 384.199 484.359 385.202 485.024 386.48C485.69 387.757 486.023 389.21 486.023 390.838C486.023 392.467 485.69 393.91 485.024 395.17C484.359 396.429 483.338 397.419 481.961 398.139C480.585 398.849 478.826 399.205 476.685 399.205H469.128V396.182H476.577C478.052 396.182 479.24 395.966 480.139 395.534C481.048 395.102 481.705 394.491 482.11 393.699C482.523 392.898 482.73 391.945 482.73 390.838C482.73 389.732 482.523 388.765 482.11 387.937C481.696 387.109 481.035 386.471 480.126 386.021C479.217 385.562 478.016 385.333 476.523 385.333H470.639V410H467.293ZM480.301 397.585L487.103 410H483.216L476.523 397.585H480.301ZM491.6 410V382.364H508.278V385.333H494.946V394.671H507.415V397.639H494.946V407.031H508.494V410H491.6ZM317.761 458V430.364H327.099C329.267 430.364 331.039 430.755 332.415 431.538C333.801 432.311 334.826 433.36 335.492 434.682C336.158 436.004 336.491 437.48 336.491 439.108C336.491 440.736 336.158 442.216 335.492 443.548C334.835 444.879 333.819 445.941 332.442 446.732C331.066 447.515 329.303 447.906 327.153 447.906H320.46V444.938H327.045C328.529 444.938 329.721 444.681 330.621 444.168C331.52 443.656 332.173 442.963 332.577 442.09C332.991 441.209 333.198 440.215 333.198 439.108C333.198 438.002 332.991 437.012 332.577 436.139C332.173 435.267 331.516 434.583 330.607 434.088C329.699 433.584 328.493 433.333 326.991 433.333H321.107V458H317.761ZM365.2 444.182C365.2 447.097 364.674 449.616 363.621 451.739C362.568 453.862 361.125 455.499 359.289 456.651C357.454 457.802 355.358 458.378 353.001 458.378C350.644 458.378 348.548 457.802 346.713 456.651C344.877 455.499 343.434 453.862 342.381 451.739C341.328 449.616 340.802 447.097 340.802 444.182C340.802 441.267 341.328 438.748 342.381 436.625C343.434 434.502 344.877 432.865 346.713 431.713C348.548 430.562 350.644 429.986 353.001 429.986C355.358 429.986 357.454 430.562 359.289 431.713C361.125 432.865 362.568 434.502 363.621 436.625C364.674 438.748 365.2 441.267 365.2 444.182ZM361.961 444.182C361.961 441.789 361.561 439.769 360.76 438.123C359.969 436.477 358.894 435.231 357.535 434.385C356.186 433.539 354.674 433.117 353.001 433.117C351.328 433.117 349.812 433.539 348.453 434.385C347.104 435.231 346.029 436.477 345.228 438.123C344.437 439.769 344.041 441.789 344.041 444.182C344.041 446.575 344.437 448.595 345.228 450.241C346.029 451.887 347.104 453.133 348.453 453.979C349.812 454.824 351.328 455.247 353.001 455.247C354.674 455.247 356.186 454.824 357.535 453.979C358.894 453.133 359.969 451.887 360.76 450.241C361.561 448.595 361.961 446.575 361.961 444.182ZM385.941 437.273C385.779 435.905 385.122 434.844 383.97 434.088C382.819 433.333 381.407 432.955 379.733 432.955C378.51 432.955 377.439 433.153 376.522 433.548C375.613 433.944 374.902 434.489 374.39 435.181C373.886 435.874 373.634 436.661 373.634 437.543C373.634 438.28 373.809 438.915 374.16 439.445C374.52 439.967 374.979 440.404 375.537 440.754C376.094 441.096 376.679 441.38 377.291 441.605C377.903 441.82 378.465 441.996 378.978 442.131L381.784 442.887C382.504 443.075 383.305 443.336 384.186 443.669C385.077 444.002 385.927 444.456 386.737 445.032C387.556 445.599 388.23 446.328 388.761 447.218C389.292 448.109 389.557 449.202 389.557 450.497C389.557 451.991 389.166 453.34 388.383 454.546C387.61 455.751 386.476 456.709 384.983 457.42C383.498 458.131 381.694 458.486 379.571 458.486C377.592 458.486 375.878 458.167 374.43 457.528C372.991 456.889 371.857 455.998 371.029 454.856C370.211 453.713 369.747 452.387 369.64 450.875H373.094C373.184 451.919 373.535 452.782 374.147 453.466C374.767 454.141 375.55 454.645 376.495 454.977C377.448 455.301 378.474 455.463 379.571 455.463C380.849 455.463 381.996 455.256 383.012 454.842C384.029 454.42 384.834 453.835 385.428 453.088C386.022 452.333 386.318 451.451 386.318 450.443C386.318 449.526 386.062 448.779 385.549 448.203C385.037 447.628 384.362 447.16 383.525 446.8C382.689 446.44 381.784 446.125 380.813 445.855L377.412 444.884C375.253 444.263 373.544 443.377 372.284 442.225C371.025 441.074 370.395 439.567 370.395 437.705C370.395 436.157 370.814 434.808 371.65 433.656C372.496 432.496 373.629 431.596 375.051 430.958C376.481 430.31 378.078 429.986 379.841 429.986C381.622 429.986 383.206 430.305 384.591 430.944C385.977 431.574 387.074 432.437 387.884 433.535C388.703 434.632 389.134 435.878 389.179 437.273H385.941ZM410.173 437.273C410.011 435.905 409.355 434.844 408.203 434.088C407.051 433.333 405.639 432.955 403.966 432.955C402.742 432.955 401.672 433.153 400.754 433.548C399.845 433.944 399.135 434.489 398.622 435.181C398.118 435.874 397.866 436.661 397.866 437.543C397.866 438.28 398.042 438.915 398.393 439.445C398.752 439.967 399.211 440.404 399.769 440.754C400.327 441.096 400.912 441.38 401.523 441.605C402.135 441.82 402.697 441.996 403.21 442.131L406.017 442.887C406.737 443.075 407.537 443.336 408.419 443.669C409.309 444.002 410.16 444.456 410.969 445.032C411.788 445.599 412.463 446.328 412.993 447.218C413.524 448.109 413.79 449.202 413.79 450.497C413.79 451.991 413.398 453.34 412.616 454.546C411.842 455.751 410.708 456.709 409.215 457.42C407.731 458.131 405.927 458.486 403.804 458.486C401.825 458.486 400.111 458.167 398.662 457.528C397.223 456.889 396.09 455.998 395.262 454.856C394.443 453.713 393.98 452.387 393.872 450.875H397.326C397.416 451.919 397.767 452.782 398.379 453.466C399 454.141 399.782 454.645 400.727 454.977C401.681 455.301 402.706 455.463 403.804 455.463C405.081 455.463 406.228 455.256 407.245 454.842C408.261 454.42 409.067 453.835 409.66 453.088C410.254 452.333 410.551 451.451 410.551 450.443C410.551 449.526 410.295 448.779 409.782 448.203C409.269 447.628 408.594 447.16 407.758 446.8C406.921 446.44 406.017 446.125 405.045 445.855L401.645 444.884C399.486 444.263 397.776 443.377 396.517 442.225C395.257 441.074 394.628 439.567 394.628 437.705C394.628 436.157 395.046 434.808 395.883 433.656C396.728 432.496 397.862 431.596 399.283 430.958C400.714 430.31 402.31 429.986 404.074 429.986C405.855 429.986 407.438 430.305 408.824 430.944C410.209 431.574 411.307 432.437 412.116 433.535C412.935 434.632 413.367 435.878 413.412 437.273H410.173ZM422.638 430.364V458H419.292V430.364H422.638ZM429.349 458V430.364H439.01C440.936 430.364 442.523 430.697 443.774 431.362C445.024 432.019 445.956 432.905 446.567 434.021C447.179 435.127 447.485 436.355 447.485 437.705C447.485 438.892 447.273 439.873 446.851 440.646C446.437 441.42 445.888 442.032 445.204 442.482C444.53 442.931 443.796 443.264 443.005 443.48V443.75C443.85 443.804 444.701 444.101 445.555 444.641C446.41 445.181 447.125 445.954 447.701 446.962C448.277 447.969 448.564 449.202 448.564 450.659C448.564 452.045 448.25 453.291 447.62 454.397C446.99 455.504 445.996 456.381 444.638 457.029C443.279 457.676 441.511 458 439.334 458H429.349ZM432.695 455.031H439.334C441.52 455.031 443.072 454.609 443.99 453.763C444.916 452.908 445.38 451.874 445.38 450.659C445.38 449.724 445.141 448.86 444.665 448.068C444.188 447.268 443.509 446.629 442.627 446.152C441.745 445.666 440.702 445.423 439.496 445.423H432.695V455.031ZM432.695 442.509H438.903C439.91 442.509 440.819 442.311 441.628 441.915C442.447 441.519 443.095 440.961 443.572 440.242C444.057 439.522 444.3 438.676 444.3 437.705C444.3 436.49 443.877 435.46 443.032 434.614C442.186 433.76 440.846 433.333 439.01 433.333H432.695V442.509ZM457.41 430.364V458H454.063V430.364H457.41ZM464.12 458V430.364H467.467V455.031H480.313V458H464.12ZM488.842 430.364V458H485.495V430.364H488.842ZM494.04 433.333V430.364H514.768V433.333H506.077V458H502.731V433.333H494.04ZM523.279 430.364V458H519.933V430.364H523.279ZM529.989 458V430.364H546.668V433.333H533.336V442.671H545.805V445.639H533.336V455.031H546.884V458H529.989ZM567.814 437.273C567.652 435.905 566.995 434.844 565.844 434.088C564.692 433.333 563.28 432.955 561.606 432.955C560.383 432.955 559.312 433.153 558.395 433.548C557.486 433.944 556.775 434.489 556.263 435.181C555.759 435.874 555.507 436.661 555.507 437.543C555.507 438.28 555.682 438.915 556.033 439.445C556.393 439.967 556.852 440.404 557.41 440.754C557.967 441.096 558.552 441.38 559.164 441.605C559.776 441.82 560.338 441.996 560.851 442.131L563.657 442.887C564.377 443.075 565.178 443.336 566.059 443.669C566.95 444.002 567.8 444.456 568.61 445.032C569.429 445.599 570.103 446.328 570.634 447.218C571.165 448.109 571.43 449.202 571.43 450.497C571.43 451.991 571.039 453.34 570.256 454.546C569.483 455.751 568.349 456.709 566.856 457.42C565.371 458.131 563.568 458.486 561.444 458.486C559.465 458.486 557.751 458.167 556.303 457.528C554.864 456.889 553.73 455.998 552.903 454.856C552.084 453.713 551.621 452.387 551.513 450.875H554.967C555.057 451.919 555.408 452.782 556.02 453.466C556.64 454.141 557.423 454.645 558.368 454.977C559.321 455.301 560.347 455.463 561.444 455.463C562.722 455.463 563.869 455.256 564.885 454.842C565.902 454.42 566.707 453.835 567.301 453.088C567.895 452.333 568.192 451.451 568.192 450.443C568.192 449.526 567.935 448.779 567.422 448.203C566.91 447.628 566.235 447.16 565.398 446.8C564.562 446.44 563.657 446.125 562.686 445.855L559.285 444.884C557.126 444.263 555.417 443.377 554.157 442.225C552.898 441.074 552.268 439.567 552.268 437.705C552.268 436.157 552.687 434.808 553.523 433.656C554.369 432.496 555.502 431.596 556.924 430.958C558.354 430.31 559.951 429.986 561.714 429.986C563.496 429.986 565.079 430.305 566.464 430.944C567.85 431.574 568.947 432.437 569.757 433.535C570.576 434.632 571.007 435.878 571.052 437.273H567.814ZM390.18 506V478.364H399.841C401.767 478.364 403.355 478.697 404.605 479.362C405.856 480.019 406.787 480.905 407.398 482.021C408.01 483.127 408.316 484.355 408.316 485.705C408.316 486.892 408.105 487.873 407.682 488.646C407.268 489.42 406.719 490.032 406.035 490.482C405.361 490.931 404.628 491.264 403.836 491.48V491.75C404.682 491.804 405.532 492.101 406.386 492.641C407.241 493.18 407.956 493.954 408.532 494.962C409.108 495.969 409.396 497.202 409.396 498.659C409.396 500.045 409.081 501.29 408.451 502.397C407.821 503.504 406.827 504.381 405.469 505.028C404.11 505.676 402.342 506 400.165 506H390.18ZM393.526 503.031H400.165C402.351 503.031 403.903 502.608 404.821 501.763C405.747 500.908 406.211 499.874 406.211 498.659C406.211 497.723 405.972 496.86 405.496 496.068C405.019 495.268 404.34 494.629 403.458 494.152C402.576 493.666 401.533 493.423 400.327 493.423H393.526V503.031ZM393.526 490.509H399.734C400.741 490.509 401.65 490.311 402.459 489.915C403.278 489.519 403.926 488.961 404.403 488.241C404.888 487.522 405.131 486.676 405.131 485.705C405.131 484.49 404.709 483.46 403.863 482.614C403.017 481.76 401.677 481.333 399.841 481.333H393.526V490.509ZM414.894 506V478.364H431.573V481.333H418.241V490.67H430.71V493.639H418.241V503.031H431.789V506H414.894ZM456.497 487C456.201 486.091 455.809 485.277 455.323 484.558C454.847 483.829 454.275 483.208 453.61 482.695C452.953 482.183 452.206 481.791 451.37 481.521C450.533 481.252 449.615 481.117 448.617 481.117C446.979 481.117 445.491 481.539 444.15 482.385C442.81 483.231 441.744 484.477 440.952 486.123C440.16 487.769 439.764 489.789 439.764 492.182C439.764 494.575 440.165 496.594 440.965 498.241C441.766 499.887 442.85 501.133 444.218 501.979C445.585 502.824 447.123 503.247 448.833 503.247C450.416 503.247 451.81 502.91 453.016 502.235C454.23 501.551 455.175 500.589 455.85 499.347C456.533 498.097 456.875 496.626 456.875 494.935L457.901 495.151H449.588V492.182H460.114V495.151C460.114 497.427 459.628 499.406 458.657 501.088C457.694 502.77 456.362 504.075 454.662 505.001C452.971 505.919 451.028 506.378 448.833 506.378C446.386 506.378 444.236 505.802 442.382 504.651C440.538 503.499 439.099 501.862 438.064 499.739C437.039 497.616 436.526 495.097 436.526 492.182C436.526 489.996 436.818 488.03 437.403 486.285C437.997 484.531 438.833 483.037 439.913 481.805C440.992 480.572 442.27 479.628 443.745 478.971C445.221 478.314 446.844 477.986 448.617 477.986C450.074 477.986 451.433 478.206 452.692 478.647C453.96 479.079 455.09 479.695 456.079 480.496C457.078 481.288 457.91 482.237 458.576 483.343C459.241 484.441 459.7 485.66 459.952 487H456.497ZM469.192 478.364V506H465.846V478.364H469.192ZM497.817 478.364V506H494.578L479.519 484.301H479.249V506H475.902V478.364H479.141L494.255 500.116H494.524V478.364H497.817Z" fill="#D1EEEA"/>
</g>
</g>
<defs>
<clipPath id="clip0_1774_22791">
<rect width="255" height="125" fill="white" transform="translate(317 382)"/>
</clipPath>
</defs>
</svg>
