<?xml version="1.0" encoding="UTF-8"?>
<svg xmlns="http://www.w3.org/2000/svg" xmlns:xlink="http://www.w3.org/1999/xlink" width="56" height="56" viewBox="0 0 56 56">
  <defs>
    <clipPath id="clip-path">
      <rect id="Rectangle_10" data-name="Rectangle 10" width="31.161" height="31.171" transform="translate(0 0)" fill="#0a4647"></rect>
    </clipPath>
    <clipPath id="clip-fitness">
      <rect width="56" height="56"></rect>
    </clipPath>
  </defs>
  <g id="fitness" clip-path="url(#clip-fitness)">
    <g id="Group_10" data-name="Group 10" transform="translate(12 12)">
      <g id="Group_9" data-name="Group 9" clip-path="url(#clip-path)">
        <path id="Path_5" data-name="Path 5" d="M7.135,8.347,1.846,13.636a1.05,1.05,0,0,1-.763.31,1.032,1.032,0,0,1-.773-.31A1.118,1.118,0,0,1,.3,12.1L2,10.394l-.571-.57a1.332,1.332,0,0,1,0-1.93L4.044,5.276l-1.8-1.805a.856.856,0,0,1-.256-.582.808.808,0,0,1,.266-.625.854.854,0,0,1,.6-.278.845.845,0,0,1,.609.268l1.8,1.795L7.89,1.43a1.333,1.333,0,0,1,1.929,0L10.39,2,12.1.305A1.033,1.033,0,0,1,12.859,0a1.059,1.059,0,0,1,1.078,1.083,1.041,1.041,0,0,1-.305.767L8.342,7.14,24.026,22.823l5.289-5.289a1.054,1.054,0,0,1,.763-.31,1.036,1.036,0,0,1,.773.31,1.119,1.119,0,0,1,.01,1.536l-1.7,1.706.57.571a1.331,1.331,0,0,1,0,1.929l-2.618,2.618,1.8,1.805a.854.854,0,0,1,.256.583.811.811,0,0,1-.266.625.8.8,0,0,1-1.207.009L25.89,27.122,23.272,29.74a1.334,1.334,0,0,1-1.93,0l-.571-.571-1.706,1.7a1.033,1.033,0,0,1-.763.306,1.061,1.061,0,0,1-1.078-1.083,1.038,1.038,0,0,1,.306-.768l5.289-5.289Z" fill="#0a4647"></path>
      </g>
    </g>
  </g>
</svg>
