<?xml version="1.0" encoding="UTF-8"?>
<svg xmlns="http://www.w3.org/2000/svg" width="64" height="64" viewBox="0 0 64 64" fill="none">
  <path d="M52.6644 15.8759L58.6962 14.7387C60.7893 14.3761 62.2397 12.4972 62.0749 10.3382C61.9266 8.29456 60.2125 6.66306 58.1524 6.53121L54.5597 6.13569C54.0323 4.07558 52.5489 2.22964 50.4888 1.10894C47.9672 -0.275451 45.0173 -0.357726 42.1826 0.828896C36.8592 3.08678 35.7056 9.03625 36.4143 14.0959C35.8374 14.1618 35.2769 14.3926 34.832 14.7881C34.2386 15.2991 33.8761 16.0077 33.8102 16.7988L33.7609 17.3591C29.6901 18.727 25.3061 19.5676 20.7079 19.8972L20.6585 19.8147C20.2629 19.139 19.6202 18.6611 18.8621 18.4469C18.104 18.2491 17.3129 18.3646 16.6207 18.7601C15.8132 19.238 15.3352 20.0455 15.2034 20.9025C13.6047 20.5399 11.7094 20.6717 9.99538 21.2815C8.46266 21.8254 6.41907 23.0121 5.29837 25.5337C3.41955 29.8023 2.10098 32.4226 2.10098 32.4556C1.98561 32.6698 1.96908 32.9336 2.05148 33.1644C2.13389 33.3951 2.29876 33.5928 2.52949 33.6917L8.47906 36.477L5.24888 46.3326C4.42483 48.6893 5.47961 51.3097 7.72101 52.3974C8.36376 52.7105 9.05593 52.8589 9.74812 52.8589C11.5281 52.8589 13.3079 51.8535 14.2144 50.1065L20.7244 37.2516C21.0705 36.5759 21.7297 36.1309 22.4713 36.0485L27.7288 35.4387V37.6306L27.5805 37.5811C26.1797 37.0867 24.6469 37.7295 24.0371 39.0974C23.7075 39.8226 23.691 40.6632 24.0041 41.4048C24.1854 41.8498 24.4986 42.2287 24.8777 42.5089C24.5316 42.7891 24.2349 43.1352 24.0371 43.5637C23.7075 44.2888 23.691 45.1294 24.0041 45.871C24.1854 46.316 24.4986 46.6952 24.8777 46.9753C24.5316 47.2555 24.2349 47.6014 24.0371 48.0299C23.7075 48.7551 23.691 49.5957 24.0041 50.3373C24.3173 51.0789 24.9271 51.6559 25.6852 51.9196L27.7288 52.6282V57.0616H21.3342C18.0051 57.0616 15.3022 59.7643 15.3022 63.0935C15.3022 63.6044 15.7143 64 16.2087 64H46.8796C47.3905 64 47.7859 63.5879 47.7859 63.0935C47.7859 59.7643 45.0832 57.0616 41.7705 57.0616H35.376V55.3145L35.5242 55.364C35.8374 55.4794 36.1669 55.5288 36.48 55.5288C37.5678 55.5288 38.5897 54.9025 39.0677 53.8477C39.3973 53.1226 39.4138 52.282 39.1006 51.5404C38.9194 51.0954 38.6062 50.7329 38.2436 50.4363C38.5897 50.1561 38.8864 49.81 39.0677 49.3815C39.3973 48.6563 39.4138 47.8158 39.1006 47.0741C38.9194 46.6291 38.6062 46.2665 38.2436 45.9698C38.5897 45.6896 38.8864 45.3437 39.0677 44.9152C39.3973 44.1901 39.4138 43.3495 39.1006 42.6079C38.7875 41.8662 38.1777 41.2893 37.4196 41.0256L35.3265 40.3005C35.3265 40.3005 35.376 40.1686 35.376 40.0862V34.9772C35.376 34.8289 35.3264 34.697 35.277 34.5652L38.8204 34.1532C38.8204 34.1532 38.8369 34.1532 38.8534 34.1532C38.9852 34.2026 39.1171 34.2355 39.2654 34.2684L49.6977 45.7558C51.4282 47.6181 54.3123 47.7994 56.2571 46.1678C58.1029 44.6186 58.4656 41.8333 57.1141 39.7237L50.8185 29.1594C49.7967 27.5608 49.5329 25.5995 50.1098 23.7866L52.6479 15.8429L52.6644 15.8759ZM42.9076 2.50978C45.2149 1.5374 47.5883 1.60332 49.6155 2.70754C50.9998 3.46566 52.038 4.61942 52.5654 5.90493L48.2804 5.42692C46.5829 5.32804 44.9842 6.15221 44.0942 7.61901L43.5009 8.59132L39.5292 16.0737C39.3149 15.4309 38.8697 14.9035 38.3094 14.5409C38.3094 14.5079 38.3094 14.4751 38.3094 14.4421C38.0292 12.8929 36.9745 5.01487 42.8911 2.50978H42.9076ZM33.6289 19.3204L33.3981 22.3693C33.2663 24.0998 32.0467 25.5172 30.3492 25.9127L27.7946 26.506C26.0971 26.8851 24.3831 26.1434 23.5096 24.6602L21.7462 21.6605C25.8994 21.298 29.8877 20.5235 33.6289 19.3369V19.3204ZM17.5765 20.3422C17.7578 20.2433 17.9391 20.1939 18.1368 20.1939C18.2357 20.1939 18.3347 20.1938 18.4171 20.2267C18.7137 20.3091 18.9445 20.4905 19.0928 20.7377L21.9275 25.5667C23.213 27.7587 25.7347 28.8462 28.1903 28.2694L30.7447 27.6761C33.2169 27.1157 34.9969 25.0227 35.1947 22.5011L35.5407 18.0843L35.623 16.9305C35.6395 16.6339 35.788 16.3538 36.0187 16.1725C36.2495 15.9747 36.5461 15.8923 36.8263 15.9087C37.4361 15.9582 37.8975 16.5022 37.8646 17.112L37.4361 22.6825C37.1559 26.193 34.6838 29.0771 31.2557 29.8682L28.7011 30.4615C28.4209 30.5274 28.1573 30.5768 27.8771 30.6097C24.6963 31.0053 21.6143 29.4726 19.9827 26.7038L17.148 21.8748C16.8349 21.3474 17.0162 20.6553 17.5435 20.3422H17.5765ZM4.17758 32.4391C4.70497 31.3349 5.72673 29.1759 7.01224 26.2753C7.86925 24.347 9.46803 23.4241 10.6547 22.9956C12.6324 22.2869 14.577 22.4682 15.6977 22.9626L16.1757 23.7866L16.0109 23.8196C13.8849 24.1163 12.1214 25.5667 11.3962 27.6268L9.07235 34.7135L4.17758 32.4226V32.4391ZM41.8198 58.9075C43.814 58.9075 45.495 60.3083 45.9236 62.1871H17.28C17.692 60.3083 19.373 58.9075 21.3837 58.9075H41.8198ZM29.5912 57.0781V53.2874L33.6124 54.6883V57.0616H29.5912V57.0781ZM37.4691 53.1227C37.2383 53.6171 36.6944 53.8478 36.1835 53.6665L26.3115 50.222C26.0313 50.1231 25.8171 49.9254 25.7017 49.6452C25.5863 49.3815 25.5863 49.0849 25.7017 48.8047C25.883 48.4256 26.2455 48.1949 26.641 48.1949C26.7564 48.1949 26.8717 48.2112 26.987 48.2607L36.8591 51.7053C37.1392 51.8042 37.3537 52.002 37.4691 52.2821C37.5844 52.5458 37.5844 52.8425 37.4691 53.1227ZM37.4691 48.6562C37.2383 49.1506 36.6944 49.3815 36.1835 49.2002L26.3115 45.7558C26.0313 45.6569 25.8171 45.4589 25.7017 45.1788C25.5863 44.9151 25.5863 44.6184 25.7017 44.3382C25.883 43.9592 26.2455 43.7284 26.641 43.7284C26.7564 43.7284 26.8717 43.745 26.987 43.7944L36.8591 47.2389C37.1392 47.3378 37.3537 47.5357 37.4691 47.8159C37.5844 48.0796 37.5844 48.376 37.4691 48.6562ZM36.8756 42.7726C37.1557 42.8715 37.37 43.0692 37.4854 43.3494C37.6007 43.6131 37.6007 43.9098 37.4854 44.19C37.2546 44.6844 36.7109 44.915 36.2 44.7338L26.328 41.2893C26.0478 41.1904 25.8336 40.9927 25.7182 40.7125C25.6028 40.4488 25.6028 40.1522 25.7182 39.872C25.8995 39.4929 26.262 39.2622 26.6575 39.2622C26.7729 39.2622 26.8882 39.2787 27.0035 39.3282L36.8756 42.7726ZM29.5747 38.2899C29.5747 38.2899 29.5912 38.2239 29.5912 38.1909V35.2573L33.6454 34.7959C33.6454 34.7959 33.5959 34.9278 33.5959 35.0102V39.7072L29.5582 38.2899H29.5747ZM49.3022 30.1647L55.598 40.729C56.455 42.0805 56.2572 43.8768 55.12 44.8327C53.9169 45.8381 52.1533 45.7391 51.0821 44.5855L40.4685 32.9006C40.3366 32.7688 40.1718 32.6698 39.9905 32.6204C39.8092 32.5874 39.6444 32.538 39.3972 32.4556L39.2819 32.4061C39.1501 32.3567 39.0017 32.3403 38.8699 32.3568L22.2735 34.2684C20.9386 34.4168 19.7521 35.2409 19.1093 36.4605L12.5993 49.3155C11.8082 50.8317 9.97889 51.5075 8.54505 50.7988C7.1277 50.1066 6.46836 48.4586 6.99575 46.9588L13.1268 28.2529C13.6212 26.852 14.8077 25.8632 16.3075 25.649L17.148 25.4842L18.4171 27.6431C20.197 30.6756 23.4273 32.5051 26.8883 32.5051C27.3003 32.5051 27.6958 32.472 28.1078 32.4226C28.4375 32.3732 28.767 32.3237 29.1131 32.2413L31.6678 31.648C35.8704 30.6757 38.9358 27.1323 39.2654 22.8308L39.4797 19.9797C39.4797 19.9797 39.6115 19.8478 39.6444 19.7654L45.0995 9.49785L45.66 8.57482C46.1874 7.70134 47.1597 7.20683 48.1156 7.25627L57.9877 8.36057C59.1908 8.44297 60.1631 9.34948 60.2455 10.4867C60.3444 11.6898 59.5368 12.7445 58.3667 12.9423L51.7908 14.1784C51.4612 14.2443 51.1975 14.475 51.0986 14.8046L48.3957 23.2758C47.654 25.5996 47.9837 28.1211 49.2857 30.1647H49.3022Z" fill="#0A4647"></path>
</svg>
