<svg width="24" height="24" viewBox="0 0 24 24" fill="none" xmlns="http://www.w3.org/2000/svg">
<g id="location_on">
<mask id="mask0_1150_4137" style="mask-type:alpha" maskUnits="userSpaceOnUse" x="0" y="0" width="24" height="24">
<rect id="Bounding box" width="24" height="24" fill="#D9D9D9"/>
</mask>
<g mask="url(#mask0_1150_4137)">
<path id="location_on_2" d="M12 11.5C12.4218 11.5 12.7773 11.3554 13.0663 11.0663C13.3554 10.7773 13.5 10.4218 13.5 10C13.5 9.5782 13.3554 9.22275 13.0663 8.93365C12.7773 8.64455 12.4218 8.5 12 8.5C11.5782 8.5 11.2228 8.64455 10.9337 8.93365C10.6446 9.22275 10.5 9.5782 10.5 10C10.5 10.4218 10.6446 10.7773 10.9337 11.0663C11.2228 11.3554 11.5782 11.5 12 11.5ZM12 20.2539C14.0846 18.4385 15.6891 16.6208 16.8135 14.801C17.9378 12.9811 18.5 11.4474 18.5 10.2C18.5 8.22948 17.8728 6.62019 16.6183 5.37213C15.3638 4.12404 13.8244 3.5 12 3.5C10.1757 3.5 8.63623 4.12404 7.38173 5.37213C6.12724 6.62019 5.5 8.22948 5.5 10.2C5.5 11.4474 6.06218 12.9811 7.18655 14.801C8.3109 16.6208 9.91538 18.4385 12 20.2539ZM12 21.2981C11.8923 21.2981 11.791 21.2827 11.6962 21.2519C11.6013 21.2212 11.5103 21.1705 11.4231 21.1C9.09231 18.9628 7.35577 16.9798 6.21345 15.151C5.07115 13.3221 4.5 11.6718 4.5 10.2C4.5 7.85385 5.25609 5.98397 6.76827 4.59037C8.28044 3.19679 10.0244 2.5 12 2.5C13.9756 2.5 15.7196 3.19679 17.2317 4.59037C18.7439 5.98397 19.5 7.85385 19.5 10.2C19.5 11.6718 18.9288 13.3221 17.7865 15.151C16.6442 16.9798 14.9077 18.9628 12.5769 21.1C12.5026 21.1705 12.4147 21.2212 12.3134 21.2519C12.2122 21.2827 12.1077 21.2981 12 21.2981Z" fill="#0A4647"/>
</g>
</g>
</svg>
