<svg width="64" height="64" viewBox="0 0 64 64" fill="none" xmlns="http://www.w3.org/2000/svg">
<g clip-path="url(#clip0_124_134)">
<path d="M57.0944 30.2194H46.8923C46.6569 27.1755 45.2645 24.5917 42.8291 22.7047C40.4835 20.8872 37.2165 19.7979 33.63 19.637C30.5785 19.5002 28.0571 18.0311 25.3876 16.4757C22.6154 14.8605 19.7486 13.1902 16.1549 12.9985C10.0139 12.6695 6.04225 16.1162 4.97175 17.1776C2.19475 17.391 0 19.7171 0 22.5479C0 24.3012 0.84225 25.8611 2.143 26.8456L5.389 41.6835C5.39037 41.6897 5.39175 41.6961 5.39337 41.7024C5.72237 43.07 6.93475 44.0252 8.34138 44.0252H11.07V49.08C11.07 50.1516 11.9418 51.0234 13.0134 51.0234H14.4622C15.578 51.0234 16.5341 50.2645 16.7876 49.1779L17.9891 44.0252H53.469L54.6705 49.1779C54.9239 50.2645 55.8801 51.0234 56.9959 51.0234H58.4448C59.5164 51.0234 60.3881 50.1516 60.3881 49.08V44.0252H60.9767C62.6439 44.0252 64.0003 42.669 64.0003 41.0019V37.125C64 33.3172 60.9021 30.2194 57.0944 30.2194ZM16.0549 14.8709C19.1962 15.0385 21.7451 16.5236 24.4438 18.096C27.1918 19.6971 30.0334 21.3527 33.546 21.5102C41.417 21.8631 44.5815 26.229 45.0031 30.2194H17.9756C15.9937 30.2194 14.2056 31.0597 12.945 32.4015V31.1569C12.945 31.1405 12.9446 31.124 12.9438 31.1076C12.928 30.8091 12.5331 23.7731 10.1811 20.0926C9.594 18.951 8.61175 18.0454 7.4155 17.5575C9.02375 16.3474 12.0267 14.6552 16.0549 14.8709ZM5.38775 19.0351C7.32475 19.0351 8.9005 20.6109 8.9005 22.5479C8.9005 24.4849 7.32475 26.0606 5.38775 26.0606C3.45075 26.0606 1.875 24.4847 1.875 22.5479C1.875 20.611 3.45075 19.0351 5.38775 19.0351ZM7.21838 41.2719L4.27537 27.8195C4.6345 27.8951 5.0065 27.9356 5.38775 27.9356C7.44738 27.9356 9.24 26.7735 10.1462 25.0709C10.8627 27.9472 11.0527 30.8949 11.07 31.1836V37.125V42.1504H8.34138C7.80725 42.1504 7.34663 41.7895 7.21838 41.2719ZM14.9615 48.7522C14.9071 48.9855 14.7017 49.1485 14.4622 49.1485H13.0134C12.9756 49.1485 12.945 49.1179 12.945 49.0801V44.0254H16.0637L14.9615 48.7522ZM58.513 49.0801C58.513 49.1179 58.4824 49.1485 58.4446 49.1485H56.9958C56.7561 49.1485 56.5509 48.9855 56.4965 48.7522L55.3944 44.0254H58.5131V49.0801H58.513ZM62.125 41.002C62.125 41.6352 61.6098 42.1504 60.9765 42.1504H12.945V37.125C12.945 34.3511 15.2017 32.0944 17.9756 32.0944H57.0944C59.8683 32.0944 62.125 34.3511 62.125 37.125V41.002Z" fill="#0A4647"/>
</g>
<defs>
<clipPath id="clip0_124_134">
<rect width="64" height="64" fill="white"/>
</clipPath>
</defs>
</svg>
