<?xml version="1.0" encoding="UTF-8"?>
<svg xmlns="http://www.w3.org/2000/svg" width="57" height="64" viewBox="0 0 57 64" fill="none">
  <path d="M32.8217 61.8317C25.6585 61.8317 21.8736 58.8392 21.8736 53.167H19.7048C19.7048 58.9122 15.6905 61.8317 7.76607 61.8317H0.175293V64.0005H7.76607C12.6041 64.0005 16.2639 62.9578 18.6517 60.8933C19.4233 60.226 20.0593 59.4544 20.5598 58.5889H20.9977C22.9371 62.0819 27.0244 63.9901 32.8322 63.9901H56.6054V61.8213H32.8322L32.8217 61.8317Z" fill="#0A4647"></path>
  <path d="M53.5187 53.146L54.2382 50.9772H50.0778C42.1534 50.9772 38.1391 48.0681 38.1391 42.3125H35.9703C35.9703 47.9743 32.1854 50.9772 25.0221 50.9772H3.24045L2.521 53.146H25.0221C30.8299 53.146 34.9068 51.2274 36.8566 47.7449H37.2946C37.7951 48.6103 38.431 49.3819 39.2026 50.0492C41.58 52.1033 45.2502 53.146 50.0883 53.146H53.5291H53.5187Z" fill="#0A4647"></path>
  <path d="M36.0645 33.7308C36.492 32.3649 37.7432 31.4474 39.1717 31.4474H49.2753L51.882 40.1329H34.073L36.0645 33.7413V33.7308ZM11.6761 16.2554H17.5256L18.6099 17.3398V22.5011L11.6761 16.2554ZM5.6077 9.79081L19.7465 2.43988L33.8123 9.79081C35.5015 10.6667 36.6484 12.262 36.9716 14.0971H2.4379C2.77156 12.2724 3.91855 10.6771 5.6077 9.80123M20.7892 22.5116V17.3503L21.8736 16.2659H27.723L20.7892 22.5116ZM56.5949 40.1434H54.1447L51.2252 30.4047L56.8244 14.1075H54.5304L49.3066 29.2994H39.1717C36.784 29.2994 34.6986 30.8322 33.9895 33.1052L31.7895 40.1434H20.7787V25.4311L30.9658 16.2659H39.2343V15.1711C39.2343 12.0951 37.5451 9.30075 34.8133 7.87227L19.7465 0L4.6067 7.88269C1.87487 9.30074 0.175293 12.1056 0.175293 15.1919V16.2763H8.44377L18.6308 25.4415V40.1538H0.18573V42.3226H56.6158V40.1538L56.5949 40.1434Z" fill="#0A4647"></path>
</svg>
